<?xml version="1.0" encoding="iso-8859-1"?>
<!-- Generator: Adobe Illustrator 19.0.0, SVG Export Plug-In . SVG Version: 6.00 Build 0)  -->
<svg version="1.1" id="Layer_1" xmlns="http://www.w3.org/2000/svg" xmlns:xlink="http://www.w3.org/1999/xlink" x="0px" y="0px"
	 viewBox="0 0 503.322 503.322" style="enable-background:new 0 0 503.322 503.322;" xml:space="preserve">
<g transform="translate(1)">
	<g>
		<path style="fill:#90BAE1;" d="M250.661,459.932c-5.207,0-8.678-3.471-8.678-8.678v-43.39c0-5.207,3.471-8.678,8.678-8.678
			c5.207,0,8.678,3.471,8.678,8.678v43.39C259.339,456.461,255.868,459.932,250.661,459.932z"/>
		<path style="fill:#90BAE1;" d="M189.915,485.966h-78.102c-5.207,0-8.678-3.471-8.678-8.678c0-5.207,3.471-8.678,8.678-8.678
			h78.102c5.207,0,8.678,3.471,8.678,8.678C198.593,482.495,195.122,485.966,189.915,485.966z"/>
		<path style="fill:#90BAE1;" d="M389.508,485.966h-78.102c-5.207,0-8.678-3.471-8.678-8.678c0-5.207,3.471-8.678,8.678-8.678
			h78.102c5.207,0,8.678,3.471,8.678,8.678C398.186,482.495,394.715,485.966,389.508,485.966z"/>
	</g>
	<path style="fill:#546080;" d="M294.051,34.712V17.356C294.051,7.81,286.241,0,276.695,0h-52.068
		c-9.546,0-17.356,7.81-17.356,17.356v17.356h-26.034c-4.339,0-8.678,4.339-8.678,8.678v34.712c0,5.207,3.471,8.678,8.678,8.678
		h138.847c5.207,0,8.678-3.471,8.678-8.678V43.39c0-5.207-3.471-8.678-8.678-8.678H294.051z"/>
	<path style="fill:#EFEADD;" d="M328.763,60.746v17.356c0,5.207-3.471,8.678-8.678,8.678H181.237c-5.207,0-8.678-3.471-8.678-8.678
		V60.746h-26.034c-19.092,0-34.712,15.62-34.712,34.712v277.695c0,19.092,15.62,34.712,34.712,34.712h208.271
		c19.092,0,34.712-15.62,34.712-34.712V95.458c0-19.092-15.62-34.712-34.712-34.712H328.763z"/>
	<path style="fill:#F38774;" d="M337.441,242.983c0-47.729-39.051-86.78-86.78-86.78s-86.78,39.051-86.78,86.78
		s39.051,86.78,86.78,86.78S337.441,290.712,337.441,242.983"/>
	<g>
		<path style="fill:#FFFFFF;" d="M281.034,282.034c-2.603,0-4.339-0.868-6.075-2.603l-61.614-61.614
			c-3.471-3.471-3.471-8.678,0-12.149c3.471-3.471,8.678-3.471,12.149,0l61.614,61.614c3.471,3.471,3.471,8.678,0,12.149
			C285.373,282.034,283.637,282.034,281.034,282.034z"/>
		<path style="fill:#FFFFFF;" d="M220.288,282.034c-2.603,0-4.339-0.868-6.075-2.603c-3.471-3.471-3.471-8.678,0-12.149
			l61.614-61.614c3.471-3.471,8.678-3.471,12.149,0c3.471,3.471,3.471,8.678,0,12.149l-61.614,61.614
			C224.627,282.034,222.024,282.034,220.288,282.034z"/>
	</g>
	<path style="fill:#546080;" d="M294.051,503.322h-86.78c-9.546,0-17.356-7.81-17.356-17.356V468.61
		c0-9.546,7.81-17.356,17.356-17.356h86.78c9.546,0,17.356,7.81,17.356,17.356v17.356
		C311.407,495.512,303.597,503.322,294.051,503.322"/>
</g>
<g>
</g>
<g>
</g>
<g>
</g>
<g>
</g>
<g>
</g>
<g>
</g>
<g>
</g>
<g>
</g>
<g>
</g>
<g>
</g>
<g>
</g>
<g>
</g>
<g>
</g>
<g>
</g>
<g>
</g>
</svg>
