<?xml version="1.0" encoding="iso-8859-1"?>
<!-- Generator: Adobe Illustrator 19.0.0, SVG Export Plug-In . SVG Version: 6.00 Build 0)  -->
<svg version="1.1" id="Layer_1" xmlns="http://www.w3.org/2000/svg" xmlns:xlink="http://www.w3.org/1999/xlink" x="0px" y="0px"
	 viewBox="0 0 503.322 503.322" style="enable-background:new 0 0 503.322 503.322;" xml:space="preserve">
<g>
	<path style="fill:#91BAE1;" d="M251.661,459.932c-5.207,0-8.678-3.471-8.678-8.678v-43.39c0-5.207,3.471-8.678,8.678-8.678
		c5.207,0,8.678,3.471,8.678,8.678v43.39C260.339,456.461,256.868,459.932,251.661,459.932"/>
	<path style="fill:#91BAE1;" d="M190.915,485.966h-78.102c-5.207,0-8.678-3.471-8.678-8.678c0-5.207,3.471-8.678,8.678-8.678h78.102
		c5.207,0,8.678,3.471,8.678,8.678C199.593,482.495,196.122,485.966,190.915,485.966"/>
	<path style="fill:#91BAE1;" d="M390.508,485.966h-78.102c-5.207,0-8.678-3.471-8.678-8.678c0-5.207,3.471-8.678,8.678-8.678h78.102
		c5.207,0,8.678,3.471,8.678,8.678C399.186,482.495,395.715,485.966,390.508,485.966"/>
</g>
<path style="fill:#546080;" d="M295.051,34.712V17.356C295.051,7.81,287.241,0,277.695,0h-52.068
	c-9.546,0-17.356,7.81-17.356,17.356v17.356h-26.034c-4.339,0-8.678,4.339-8.678,8.678v34.712c0,5.207,3.471,8.678,8.678,8.678
	h138.847c5.207,0,8.678-3.471,8.678-8.678V43.39c0-5.207-3.471-8.678-8.678-8.678H295.051z"/>
<path style="fill:#EFEADD;" d="M329.763,60.746v17.356c0,5.207-3.471,8.678-8.678,8.678H182.237c-5.207,0-8.678-3.471-8.678-8.678
	V60.746h-26.034c-19.092,0-34.712,15.62-34.712,34.712v277.695c0,19.092,15.62,34.712,34.712,34.712h208.271
	c19.092,0,34.712-15.62,34.712-34.712V95.458c0-19.092-15.62-34.712-34.712-34.712H329.763z"/>
<g>
	<path style="fill:#D4D0BA;" d="M338.441,173.559H164.881c-5.207,0-8.678-3.471-8.678-8.678c0-5.207,3.471-8.678,8.678-8.678
		h173.559c5.207,0,8.678,3.471,8.678,8.678C347.119,170.088,343.647,173.559,338.441,173.559"/>
	<path style="fill:#D4D0BA;" d="M338.441,225.627H164.881c-5.207,0-8.678-3.471-8.678-8.678c0-5.207,3.471-8.678,8.678-8.678
		h173.559c5.207,0,8.678,3.471,8.678,8.678C347.119,222.156,343.647,225.627,338.441,225.627"/>
	<path style="fill:#D4D0BA;" d="M338.441,277.695H164.881c-5.207,0-8.678-3.471-8.678-8.678c0-5.207,3.471-8.678,8.678-8.678
		h173.559c5.207,0,8.678,3.471,8.678,8.678C347.119,274.224,343.647,277.695,338.441,277.695"/>
	<path style="fill:#D4D0BA;" d="M338.441,329.763H164.881c-5.207,0-8.678-3.471-8.678-8.678s3.471-8.678,8.678-8.678h173.559
		c5.207,0,8.678,3.471,8.678,8.678S343.647,329.763,338.441,329.763"/>
</g>
<path style="fill:#546080;" d="M295.051,503.322h-86.78c-9.546,0-17.356-7.81-17.356-17.356V468.61
	c0-9.546,7.81-17.356,17.356-17.356h86.78c9.546,0,17.356,7.81,17.356,17.356v17.356
	C312.407,495.512,304.597,503.322,295.051,503.322"/>
<g>
</g>
<g>
</g>
<g>
</g>
<g>
</g>
<g>
</g>
<g>
</g>
<g>
</g>
<g>
</g>
<g>
</g>
<g>
</g>
<g>
</g>
<g>
</g>
<g>
</g>
<g>
</g>
<g>
</g>
</svg>
