<?xml version="1.0" encoding="UTF-8" standalone="no"?>
<!-- Created with Inkscape (http://www.inkscape.org/) -->
<svg xmlns:xml="http://www.w3.org/XML/1998/namespace" xmlns:svg="http://www.w3.org/2000/svg" xmlns="http://www.w3.org/2000/svg" id="svg9460" height="994.35999" width="1638.0900" y="0.0000000" x="0.0000000" version="1.0">
  <defs id="defs3">
    <marker id="Arrow2Mend" style="overflow:visible" orient="auto" refY="0.0000000" refX="0.0000000">
      <path id="path5505" style="font-size:12.000000;fill-rule:evenodd;stroke-width:0.62500000;stroke-linejoin:round" transform="matrix(-0.600000,0.000000,0.000000,-0.600000,3.000000,0.000000)" d="M 8.7185878,4.0337352 L -2.2072895,0.016013256 L 8.7185884,-4.0017078 C 6.9730900,-1.6296469 6.9831476,1.6157441 8.7185878,4.0337352 z "/>
    </marker>
  </defs>
  <g id="layer1">
    <g id="g3769" transform="translate(602.6533,-539.0658)">
      <path id="path3751" style="fill:#fafeff;fill-opacity:1.0000000;stroke:#000000;stroke-width:6.5591588;stroke-miterlimit:4.0000000;stroke-opacity:1.0000000" transform="matrix(0.717928,0.000000,0.000000,0.842099,577.2824,-187.6702)" d="M -60.880447 1014.6743 A 153.65068 118.86185 0 1 1  -368.18181,1014.6743 A 153.65068 118.86185 0 1 1  -60.880447 1014.6743 z"/>
      <text xml:space="preserve" id="text3753" style="font-size:117.72247;font-style:normal;font-weight:normal;fill:#000000;fill-opacity:1.0000000;stroke:none;stroke-width:1.0000000px;stroke-linecap:butt;stroke-linejoin:miter;stroke-opacity:1.0000000;font-family:Bitstream Vera Sans" transform="scale(1.019325,0.981041)" y="722.50427" x="340.76895"><tspan id="tspan3755" y="722.50427" x="340.76895">50</tspan></text>
    </g>
    <g id="g3867" transform="translate(-113.4169,-330.3329)">
      <path id="path3749" style="fill:#fafeff;fill-opacity:1.0000000;stroke:#000000;stroke-width:6.5591588;stroke-miterlimit:4.0000000;stroke-opacity:1.0000000" transform="matrix(0.717928,0.000000,0.000000,0.842099,861.3909,-170.2758)" d="M -60.880447 1014.6743 A 153.65068 118.86185 0 1 1  -368.18181,1014.6743 A 153.65068 118.86185 0 1 1  -60.880447 1014.6743 z"/>
      <text xml:space="preserve" id="text3757" style="font-size:117.72243;font-style:normal;font-weight:normal;fill:#000000;fill-opacity:1.0000000;stroke:none;stroke-width:1.0000000px;stroke-linecap:butt;stroke-linejoin:miter;stroke-opacity:1.0000000;font-family:Bitstream Vera Sans" transform="scale(1.019325,0.981041)" y="743.20984" x="627.04944"><tspan id="tspan3759" y="743.20984" x="627.04944">17</tspan></text>
    </g>
    <g id="g3872" transform="translate(237.3706,-394.1124)">
      <path id="path3747" style="fill:#fafeff;fill-opacity:1.0000000;stroke:#000000;stroke-width:6.5591588;stroke-miterlimit:4.0000000;stroke-opacity:1.0000000" transform="matrix(0.717928,0.000000,0.000000,0.842099,1194.784,-106.4963)" d="M -60.880447 1014.6743 A 153.65068 118.86185 0 1 1  -368.18181,1014.6743 A 153.65068 118.86185 0 1 1  -60.880447 1014.6743 z"/>
      <text xml:space="preserve" id="text3761" style="font-size:117.72237;font-style:normal;font-weight:normal;fill:#000000;fill-opacity:1.0000000;stroke:none;stroke-width:1.0000000px;stroke-linecap:butt;stroke-linejoin:miter;stroke-opacity:1.0000000;font-family:Bitstream Vera Sans" transform="scale(1.019325,0.981041)" y="805.32422" x="941.82562"><tspan id="tspan3763" y="805.32422" x="941.82562">72</tspan></text>
    </g>
    <g id="g3826" transform="translate(-127.9122,-272.3514)">
      <path id="path3735" style="fill:#fafeff;fill-opacity:1.0000000;stroke:#000000;stroke-width:6.5591588;stroke-miterlimit:4.0000000;stroke-opacity:1.0000000" transform="matrix(0.717928,0.000000,0.000000,0.842099,603.3738,32.65899)" d="M -60.880447 1014.6743 A 153.65068 118.86185 0 1 1  -368.18181,1014.6743 A 153.65068 118.86185 0 1 1  -60.880447 1014.6743 z"/>
      <text xml:space="preserve" id="text3765" style="font-size:117.72232;font-style:normal;font-weight:normal;fill:#000000;fill-opacity:1.0000000;stroke:none;stroke-width:1.0000000px;stroke-linecap:butt;stroke-linejoin:miter;stroke-opacity:1.0000000;font-family:Bitstream Vera Sans" transform="scale(1.019325,0.981041)" y="944.21338" x="364.47214"><tspan id="tspan3767" y="944.21338" x="364.47214">12</tspan></text>
    </g>
    <g id="g3861" transform="translate(-171.3983,658.2499)">
      <path id="path2211" style="fill:#fafeff;fill-opacity:1.0000000;stroke:#000000;stroke-width:6.5591588;stroke-miterlimit:4.0000000;stroke-opacity:1.0000000" transform="matrix(0.717928,0.000000,0.000000,0.842099,1478.893,-644.2733)" d="M -60.880447 1014.6743 A 153.65068 118.86185 0 1 1  -368.18181,1014.6743 A 153.65068 118.86185 0 1 1  -60.880447 1014.6743 z"/>
      <text xml:space="preserve" id="text3798" style="font-size:117.72232;font-style:normal;font-weight:normal;fill:#000000;fill-opacity:1.0000000;stroke:none;stroke-width:1.0000000px;stroke-linecap:butt;stroke-linejoin:miter;stroke-opacity:1.0000000;font-family:Bitstream Vera Sans" transform="scale(1.019325,0.981041)" y="259.40778" x="1224.2546"><tspan id="tspan3800" y="259.40778" x="1224.2546">67</tspan></text>
    </g>
    <g id="g3856" transform="translate(-272.8657,626.3600)">
      <path id="path3737" style="fill:#fafeff;fill-opacity:1.0000000;stroke:#000000;stroke-width:6.5591588;stroke-miterlimit:4.0000000;stroke-opacity:1.0000000" transform="matrix(0.717928,0.000000,0.000000,0.842099,1186.087,-613.8335)" d="M -60.880447 1014.6743 A 153.65068 118.86185 0 1 1  -368.18181,1014.6743 A 153.65068 118.86185 0 1 1  -60.880447 1014.6743 z"/>
      <text xml:space="preserve" id="text3802" style="font-size:117.72232;font-style:normal;font-weight:normal;fill:#000000;fill-opacity:1.0000000;stroke:none;stroke-width:1.0000000px;stroke-linecap:butt;stroke-linejoin:miter;stroke-opacity:1.0000000;font-family:Bitstream Vera Sans" transform="scale(1.019325,0.981041)" y="286.00363" x="936.99988"><tspan id="tspan3804" y="286.00363" x="936.99988">19</tspan></text>
    </g>
    <g id="g3851" transform="translate(-554.0754,365.4438)">
      <path id="path3739" style="fill:#fafeff;fill-opacity:1.0000000;stroke:#000000;stroke-width:6.5591588;stroke-miterlimit:4.0000000;stroke-opacity:1.0000000" transform="matrix(0.717928,0.000000,0.000000,0.842099,1151.298,-364.5135)" d="M -60.880447 1014.6743 A 153.65068 118.86185 0 1 1  -368.18181,1014.6743 A 153.65068 118.86185 0 1 1  -60.880447 1014.6743 z"/>
      <text xml:space="preserve" id="text3806" style="font-size:117.72232;font-style:normal;font-weight:normal;fill:#000000;fill-opacity:1.0000000;stroke:none;stroke-width:1.0000000px;stroke-linecap:butt;stroke-linejoin:miter;stroke-opacity:1.0000000;font-family:Bitstream Vera Sans" transform="scale(1.019325,0.981041)" y="537.18665" x="905.71472"><tspan id="tspan3808" y="537.18665" x="905.71472">14</tspan></text>
    </g>
    <g id="g3846" transform="translate(-1183.173,208.8941)">
      <path id="path3741" style="fill:#fafeff;fill-opacity:1.0000000;stroke:#000000;stroke-width:6.5591588;stroke-miterlimit:4.0000000;stroke-opacity:1.0000000" transform="matrix(0.717928,0.000000,0.000000,0.842099,1475.994,-210.8629)" d="M -60.880447 1014.6743 A 153.65068 118.86185 0 1 1  -368.18181,1014.6743 A 153.65068 118.86185 0 1 1  -60.880447 1014.6743 z"/>
      <text xml:space="preserve" id="text3810" style="font-size:117.72221;font-style:normal;font-weight:normal;fill:#000000;fill-opacity:1.0000000;stroke:none;stroke-width:1.0000000px;stroke-linecap:butt;stroke-linejoin:miter;stroke-opacity:1.0000000;font-family:Bitstream Vera Sans" transform="scale(1.019325,0.981041)" y="699.71637" x="1262.307"><tspan id="tspan3812" y="699.71637" x="1262.307">9</tspan></text>
    </g>
    <g id="g3841" transform="translate(150.3985,-315.8375)">
      <path id="path3743" style="fill:#fafeff;fill-opacity:1.0000000;stroke:#000000;stroke-width:6.5591588;stroke-miterlimit:4.0000000;stroke-opacity:1.0000000" transform="matrix(0.717928,0.000000,0.000000,0.842099,1493.388,81.94315)" d="M -60.880447 1014.6743 A 153.65068 118.86185 0 1 1  -368.18181,1014.6743 A 153.65068 118.86185 0 1 1  -60.880447 1014.6743 z"/>
      <text xml:space="preserve" id="text3814" style="font-size:117.72232;font-style:normal;font-weight:normal;fill:#000000;fill-opacity:1.0000000;stroke:none;stroke-width:1.0000000px;stroke-linecap:butt;stroke-linejoin:miter;stroke-opacity:1.0000000;font-family:Bitstream Vera Sans" transform="scale(1.019325,0.981041)" y="1001.1365" x="1244.1633"><tspan id="tspan3816" y="1001.1365" x="1244.1633">76</tspan></text>
    </g>
    <g id="g3836" transform="translate(22.83940,-423.1030)">
      <path id="path3745" style="fill:#fafeff;fill-opacity:1.0000000;stroke:#000000;stroke-width:6.5591588;stroke-miterlimit:4.0000000;stroke-opacity:1.0000000" transform="matrix(0.717928,0.000000,0.000000,0.842099,1203.481,192.1078)" d="M -60.880447 1014.6743 A 153.65068 118.86185 0 1 1  -368.18181,1014.6743 A 153.65068 118.86185 0 1 1  -60.880447 1014.6743 z"/>
      <text xml:space="preserve" id="text3818" style="font-size:117.72224;font-style:normal;font-weight:normal;fill:#000000;fill-opacity:1.0000000;stroke:none;stroke-width:1.0000000px;stroke-linecap:butt;stroke-linejoin:miter;stroke-opacity:1.0000000;font-family:Bitstream Vera Sans" transform="scale(1.019325,0.981041)" y="1107.5192" x="953.18195"><tspan id="tspan3820" y="1107.5192" x="953.18195">54</tspan></text>
    </g>
    <g id="g3831" transform="translate(-40.94010,-443.3965)">
      <path id="path3733" style="fill:#fafeff;fill-opacity:1.0000000;stroke:#000000;stroke-width:6.5591588;stroke-miterlimit:4.0000000;stroke-opacity:1.0000000" transform="matrix(0.717928,0.000000,0.000000,0.842099,904.8766,189.2088)" d="M -60.880447 1014.6743 A 153.65068 118.86185 0 1 1  -368.18181,1014.6743 A 153.65068 118.86185 0 1 1  -60.880447 1014.6743 z"/>
      <text xml:space="preserve" id="text3822" style="font-size:117.72230;font-style:normal;font-weight:normal;fill:#000000;fill-opacity:1.0000000;stroke:none;stroke-width:1.0000000px;stroke-linecap:butt;stroke-linejoin:miter;stroke-opacity:1.0000000;font-family:Bitstream Vera Sans" transform="scale(1.019325,0.981041)" y="1107.5197" x="663.96552"><tspan id="tspan3824" y="1107.5197" x="663.96552">23</tspan></text>
    </g>
    <path id="path3877" style="fill:none;fill-opacity:0.75000000;fill-rule:evenodd;stroke:#000000;stroke-width:5.6850524;stroke-linecap:butt;stroke-linejoin:miter;stroke-miterlimit:4.0000000;stroke-opacity:1.0000000;marker-end:url(#Arrow2Mend)" d="M 944.97193,197.11146 C 735.78203,325.04319 735.78203,325.04319 735.78203,325.04319"/>
    <path id="path6306" style="fill:none;fill-opacity:0.75000000;fill-rule:evenodd;stroke:#000000;stroke-width:4.9539604;stroke-linecap:butt;stroke-linejoin:miter;stroke-miterlimit:4.0000000;stroke-opacity:1.0000000;marker-end:url(#Arrow2Mend)" d="M 1113.1004,197.49085 L 1176.4581,266.68242"/>
    <path id="path7846" style="fill:none;fill-opacity:0.75000000;fill-rule:evenodd;stroke:#000000;stroke-width:4.5500002;stroke-linecap:butt;stroke-linejoin:miter;stroke-miterlimit:4.0000000;stroke-opacity:1.0000000;marker-start:none;marker-end:url(#Arrow2Mend)" d="M 1211.4579,440.81963 L 1150.5774,519.09450"/>
    <path id="path8618" style="fill:none;fill-opacity:0.75000000;fill-rule:evenodd;stroke:#000000;stroke-width:4.5500002;stroke-linecap:butt;stroke-linejoin:miter;stroke-miterlimit:4.0000000;stroke-opacity:1.0000000;marker-start:none;marker-end:url(#Arrow2Mend)" d="M 1352.6450,432.59040 L 1418.1590,507.03031"/>
    <path id="path8620" style="fill:none;fill-opacity:0.75000000;fill-rule:evenodd;stroke:#000000;stroke-width:5.6999998;stroke-linecap:butt;stroke-linejoin:miter;stroke-miterlimit:4.0000000;stroke-opacity:1.0000000;marker-start:none;marker-end:url(#Arrow2Mend)" d="M 1141.4213,699.43228 L 1168.4307,747.52551"/>
    <path id="path9392" style="fill:none;fill-opacity:0.75000000;fill-rule:evenodd;stroke:#000000;stroke-width:6.2679067;stroke-linecap:butt;stroke-linejoin:miter;stroke-miterlimit:4.0000000;stroke-opacity:1.0000000;marker-start:none;marker-end:url(#Arrow2Mend)" d="M 516.12275,425.59142 L 428.26760,528.52457"/>
    <path id="path9396" style="fill:none;fill-opacity:0.75000000;fill-rule:evenodd;stroke:#000000;stroke-width:5.6999998;stroke-linecap:butt;stroke-linejoin:miter;stroke-miterlimit:4.0000000;stroke-opacity:1.0000000;marker-start:none;marker-end:url(#Arrow2Mend)" d="M 673.22162,428.36929 L 700.23099,476.46252"/>
    <path id="path9398" style="fill:none;fill-opacity:0.75000000;fill-rule:evenodd;stroke:#000000;stroke-width:5.6999998;stroke-linecap:butt;stroke-linejoin:miter;stroke-miterlimit:4.0000000;stroke-opacity:1.0000000;marker-start:none;marker-end:url(#Arrow2Mend)" d="M 702.21231,700.88182 L 729.22168,748.97505"/>
    <path id="path9400" style="fill:none;fill-opacity:0.75000000;fill-rule:evenodd;stroke:#000000;stroke-width:4.5500002;stroke-linecap:butt;stroke-linejoin:miter;stroke-miterlimit:4.0000000;stroke-opacity:1.0000000;marker-start:none;marker-end:url(#Arrow2Mend)" d="M 227.22381,659.69937 L 166.34335,737.97424"/>
    <path id="path9402" style="fill:none;fill-opacity:0.75000000;fill-rule:evenodd;stroke:#000000;stroke-width:5.6999998;stroke-linecap:butt;stroke-linejoin:miter;stroke-miterlimit:4.0000000;stroke-opacity:1.0000000;marker-start:none;marker-end:url(#Arrow2Mend)" d="M 403.60817,683.48739 L 430.61754,731.58062"/>
  </g>
</svg>